<svg width="155" height="51" viewBox="0 0 155 51" fill="none" xmlns="http://www.w3.org/2000/svg">
<g clip-path="url(#clip0_29_10286)">
<path d="M0 0C51.15 0 102.3 0 155 0C155 16.83 155 33.66 155 51C103.85 51 52.7 51 0 51C0 34.17 0 17.34 0 0Z" fill="black"/>
<path d="M29.3633 6.75001C29.8822 7.05176 29.8822 7.05176 30.326 7.50001C30.4454 8.09376 30.4454 8.09376 30.4313 8.75001C30.431 8.96657 30.4307 9.18313 30.4304 9.40626C30.3066 10.1106 30.1643 10.3403 29.6039 10.75C28.3579 10.8544 27.6248 10.74 26.4751 10.25C25.9138 10.2309 25.3514 10.2271 24.7903 10.25C24.7903 10.415 24.7903 10.58 24.7903 10.75C24.9243 10.7655 25.0583 10.7809 25.1964 10.7969C25.753 11 25.753 11 26.3246 11.6094C27.0044 12.2987 27.4917 12.5085 28.4005 12.75C28.4005 13.41 28.4005 14.07 28.4005 14.75C28.0828 14.8325 27.7651 14.915 27.4378 15C27.5569 16.1138 27.5569 16.1138 27.6785 17.25C28.8699 17.3325 30.0612 17.415 31.2887 17.5C31.3122 19.624 31.3122 19.624 31.2887 20.25C31.048 20.5 31.048 20.5 30.5488 20.5332C29.3981 20.5296 28.3324 20.4551 27.1971 20.25C26.0255 20.1848 24.9704 20.2904 23.8125 20.4844C21.9626 20.7876 20.12 20.8363 18.2485 20.8486C16.9063 20.859 16.9063 20.859 15.7327 21.459C15.3223 22.1338 15.232 22.711 15.163 23.5C15.6395 23.5825 16.1161 23.665 16.6071 23.75C16.6071 23.9975 16.6071 24.245 16.6071 24.5C16.4581 24.5567 16.3092 24.6134 16.1558 24.6719C15.4945 25.0961 15.42 25.5063 15.163 26.25C14.5264 26.5806 14.0371 26.5242 13.3277 26.5156C13.0864 26.5134 12.845 26.5111 12.5963 26.5088C12.4108 26.5059 12.2252 26.503 12.0341 26.5C11.1607 24.4345 11.1607 24.4345 11.5527 23.25C11.791 23.25 12.0293 23.25 12.2748 23.25C12.2946 23.0334 12.3145 22.8169 12.3349 22.5938C12.7272 20.7603 13.9873 19.5721 15.4036 18.5C16.6448 17.7617 17.9141 17.3689 19.3147 17.0986C19.7404 17.0399 19.7404 17.0399 19.9766 16.75C20.0651 16.168 20.1457 15.5845 20.2173 15C19.979 15 19.7407 15 19.4953 15C19.1394 14.2608 19.24 13.5644 19.2546 12.75C19.4199 12.6685 19.5853 12.5869 19.7557 12.5029C20.081 12.3391 20.081 12.3391 20.4129 12.1719C20.6279 12.0646 20.8429 11.9573 21.0644 11.8467C21.614 11.5276 21.9497 11.2114 22.3835 10.75C22.5423 10.75 22.7012 10.75 22.8648 10.75C22.7457 10.5025 22.7457 10.5025 22.6241 10.25C22.4352 10.2861 22.2462 10.3222 22.0516 10.3594C19.2196 10.8791 19.2196 10.8791 18.0512 10.75C17.524 10.3448 17.3482 10.1325 17.2501 9.45215C17.2563 9.25654 17.2625 9.06092 17.2689 8.85938C17.2727 8.66312 17.2764 8.46686 17.2802 8.26465C17.3291 7.75001 17.3291 7.75001 17.5698 7.25001C19.0431 6.73988 20.6262 7.02504 22.1418 7.21973C22.301 7.22972 22.4601 7.23971 22.6241 7.25001C22.7036 7.16751 22.783 7.08501 22.8648 7.00001C24.4354 6.94068 24.4354 6.94068 25.031 7.25001C26.5924 7.34181 27.8333 6.58095 29.3633 6.75001Z" fill="#7A8799"/>
<path d="M132.376 18C133.488 18 134.6 18 135.745 18C135.666 20.8875 135.587 23.775 135.505 26.75C137.729 26.75 139.953 26.75 142.244 26.75C142.244 23.8625 142.244 20.975 142.244 18C143.435 18 144.627 18 145.854 18C145.775 24.93 145.695 31.86 145.613 39C144.501 39 143.39 39 142.244 39C142.244 35.865 142.244 32.73 142.244 29.5C140.02 29.5 137.796 29.5 135.505 29.5C135.505 32.635 135.505 35.77 135.505 39C134.393 39 133.281 39 132.135 39C132.13 36.2989 132.125 33.5977 132.123 30.8966C132.121 29.6424 132.12 28.3883 132.117 27.1342C132.114 25.925 132.113 24.7157 132.112 23.5065C132.112 23.0441 132.111 22.5817 132.11 22.1192C132.108 21.4739 132.108 20.8285 132.108 20.1832C132.107 19.99 132.106 19.7969 132.105 19.5979C132.108 18.2785 132.108 18.2785 132.376 18Z" fill="#F4F4F4"/>
<path d="M61.6497 23.7275C63.1678 24.6537 63.9807 25.8743 64.5522 27.5826C64.9853 29.6562 64.8401 31.8113 64.804 33.9219C64.7992 34.4152 64.7948 34.9085 64.7908 35.4019C64.7803 36.6014 64.7637 37.8006 64.7438 39C63.6319 39 62.5199 39 61.3743 39C61.2551 38.2575 61.2551 38.2575 61.1336 37.5C60.9747 37.6908 60.8159 37.8816 60.6522 38.0781C59.5691 39.1875 58.3131 39.5382 56.8163 39.5938C54.87 39.5223 53.3654 38.9311 51.9876 37.5C51.2888 36.326 51.3319 35.0861 51.5063 33.75C52.2797 31.7482 53.7145 30.789 55.5537 29.958C56.4323 29.6103 57.1955 29.469 58.1363 29.4756C58.3395 29.4764 58.5428 29.4772 58.7521 29.478C58.9622 29.4801 59.1722 29.4822 59.3886 29.4844C59.6024 29.4855 59.8162 29.4866 60.0364 29.4878C60.5626 29.4907 61.0888 29.4948 61.6149 29.5C61.1073 27.7953 61.1073 27.7953 60.0204 26.4844C59.8318 26.407 59.6432 26.3297 59.4488 26.25C59.2899 26.1675 59.1311 26.085 58.9674 26C56.8924 25.7556 55.6046 26.3287 53.9131 27.5C53.4365 26.9225 52.96 26.345 52.469 25.75C53.0807 24.4792 53.7864 24.0083 55.0403 23.4756C56.9955 22.923 59.7532 22.9007 61.6497 23.7275Z" fill="#F8F8F8"/>
<path d="M9.55209 27.4676C9.79222 27.4668 10.0324 27.466 10.2798 27.4652C10.6716 27.466 10.6716 27.466 11.0714 27.4668C11.3376 27.4665 11.6038 27.4663 11.8781 27.466C12.4422 27.4659 13.0063 27.4663 13.5704 27.4674C14.4372 27.4687 15.304 27.4674 16.1709 27.4658C16.7174 27.466 17.264 27.4663 17.8105 27.4668C18.2024 27.466 18.2024 27.466 18.6022 27.4652C18.8423 27.466 19.0824 27.4668 19.3298 27.4676C19.5424 27.4678 19.7549 27.468 19.9739 27.4682C20.458 27.5 20.458 27.5 20.6987 27.75C20.8333 30.041 20.6343 32.3415 20.4299 34.6219C20.3821 35.164 20.3394 35.7064 20.2968 36.249C20.2666 36.5964 20.236 36.9437 20.2051 37.291C20.1787 37.6015 20.1522 37.9121 20.1249 38.232C19.9711 39.0286 19.8951 39.3032 19.2546 39.75C17.9855 40.2586 16.4687 40.0465 15.1241 40.0463C14.6107 40.0468 14.0974 40.0514 13.584 40.0561C13.2538 40.0569 12.9237 40.0574 12.5935 40.0576C12.1471 40.0591 12.1471 40.0591 11.6916 40.0607C10.7775 39.9962 10.0079 39.8203 9.14593 39.5C8.77636 38.7322 8.78945 37.9061 8.7238 37.0615C8.70811 36.8678 8.69242 36.6741 8.67626 36.4745C8.64322 36.0632 8.61068 35.652 8.5786 35.2406C8.52984 34.6178 8.4791 33.9952 8.42811 33.3725C8.39618 32.972 8.36437 32.5714 8.33269 32.1709C8.31765 31.9872 8.30261 31.8035 8.28711 31.6143C8.18886 30.3328 8.0993 29.0345 8.1832 27.75C8.57492 27.3431 9.01148 27.4681 9.55209 27.4676Z" fill="#8A959B"/>
<path d="M100.365 18C104.575 18 108.784 18 113.121 18C113.121 18.9075 113.121 19.815 113.121 20.75C109.944 20.75 106.767 20.75 103.494 20.75C103.494 22.73 103.494 24.71 103.494 26.75C106.115 26.75 108.736 26.75 111.436 26.75C111.436 27.6575 111.436 28.565 111.436 29.5C108.815 29.5 106.194 29.5 103.494 29.5C103.494 31.7275 103.494 33.955 103.494 36.25C106.671 36.25 109.848 36.25 113.121 36.25C113.121 37.1575 113.121 38.065 113.121 39C108.912 39 104.702 39 100.365 39C100.365 32.07 100.365 25.14 100.365 18Z" fill="#FAFAFA"/>
<path d="M68.1134 23.5C69.146 23.5 70.1785 23.5 71.2423 23.5C71.2458 23.8063 71.2493 24.1126 71.253 24.4282C71.267 25.573 71.2856 26.7177 71.3055 27.8625C71.3134 28.3564 71.3202 28.8503 71.3257 29.3442C71.3338 30.0573 71.3464 30.7703 71.3598 31.4834C71.3614 31.7015 71.3629 31.9195 71.3645 32.1442C71.3967 33.5654 71.5404 34.9805 72.205 36.25C73.5976 36.7321 74.9487 36.5765 76.2967 36C76.653 35.4082 76.653 35.4082 76.778 34.75C76.8575 34.5025 76.9369 34.255 77.0187 34C77.0459 33.6511 77.061 33.301 77.0681 32.951C77.0753 32.6357 77.0753 32.6357 77.0827 32.3141C77.0887 31.9754 77.0887 31.9754 77.0949 31.6299C77.0999 31.3979 77.1049 31.1659 77.11 30.9269C77.1258 30.1856 77.1399 29.4444 77.1541 28.7031C77.1645 28.2007 77.175 27.6982 77.1856 27.1958C77.2114 25.9639 77.2357 24.732 77.2594 23.5C78.3714 23.5 79.4833 23.5 80.629 23.5C80.7084 28.615 80.7878 33.73 80.8696 39C79.8371 39 78.8046 39 77.7408 39C77.5819 38.505 77.4231 38.01 77.2594 37.5C77.1462 37.6054 77.0329 37.7108 76.9162 37.8193C76.7664 37.9563 76.6165 38.0933 76.4621 38.2344C76.3141 38.3707 76.1661 38.507 76.0137 38.6475C74.7759 39.6413 72.957 39.3975 71.483 39.25C70.3629 38.8539 69.6162 38.206 68.9859 37.1719C68.1696 35.3695 68.0448 33.6623 68.0664 31.7031C68.0671 31.4673 68.0678 31.2316 68.0685 30.9886C68.0712 30.2424 68.0772 29.4962 68.0833 28.75C68.0858 28.2412 68.088 27.7324 68.0899 27.2236C68.0952 25.9824 68.1035 24.7412 68.1134 23.5Z" fill="#F8F8F8"/>
<path d="M36.3433 18C40.394 18 44.4447 18 48.6181 18C48.6181 18.9075 48.6181 19.815 48.6181 20.75C45.5205 20.75 42.4229 20.75 39.2315 20.75C39.2315 22.565 39.2315 24.38 39.2315 26.25C41.6936 26.25 44.1558 26.25 46.6926 26.25C46.6926 27.24 46.6926 28.23 46.6926 29.25C44.2305 29.25 41.7683 29.25 39.2315 29.25C39.2315 32.4675 39.2315 35.685 39.2315 39C38.2784 39 37.3252 39 36.3433 39C36.3433 32.07 36.3433 25.14 36.3433 18Z" fill="#F7F7F7"/>
<path d="M115.528 18C120.293 18 125.059 18 129.969 18C129.969 18.99 129.969 19.98 129.969 21C128.063 21 126.156 21 124.192 21C124.192 26.94 124.192 32.88 124.192 39C123.16 39 122.127 39 121.064 39C121.064 33.06 121.064 27.12 121.064 21C119.237 21 117.41 21 115.528 21C115.528 20.01 115.528 19.02 115.528 18Z" fill="#F7F7F7"/>
<path d="M95.792 24.25C96.4086 24.7899 96.9553 25.3615 97.4767 26C97.3753 26.1205 97.2738 26.241 97.1693 26.3652C97.0374 26.5231 96.9056 26.681 96.7697 26.8437C96.5729 27.0787 96.5729 27.0787 96.372 27.3183C96.0159 27.7391 96.0159 27.7391 95.792 28.25C95.5537 28.25 95.3154 28.25 95.0699 28.25C95.0203 28.0592 94.9706 27.8684 94.9195 27.6719C94.6302 26.9686 94.6302 26.9686 94.032 26.5469C92.678 26.094 91.4209 26.0025 90.0156 26.25C88.8915 26.8646 88.2659 27.7033 87.6087 28.8125C87.1158 30.7325 87.1568 32.4718 88.0224 34.2637C88.5949 35.1665 89.323 35.7653 90.2562 36.25C92.3453 36.4814 92.3453 36.4814 94.2576 35.7812C94.4462 35.6059 94.6349 35.4306 94.8292 35.25C95.0675 35.085 95.3058 34.92 95.5513 34.75C96.1072 35.41 96.6632 36.07 97.2361 36.75C96.1613 38.4245 94.5154 39.0949 92.6631 39.5C90.3812 39.753 88.2785 39.0935 86.4156 37.7168C84.9098 36.2872 84.0806 34.2811 83.9468 32.1933C83.8773 29.4995 84.2349 27.6211 85.8995 25.5205C88.4452 22.9008 92.6963 22.236 95.792 24.25Z" fill="#F8F8F8"/>
<path d="M29.3634 6.75001C29.8824 7.05176 29.8824 7.05176 30.3261 7.50001C30.4455 8.09376 30.4455 8.09376 30.4314 8.75001C30.4311 8.96657 30.4308 9.18313 30.4305 9.40626C30.3067 10.1106 30.1644 10.3403 29.6041 10.75C28.358 10.8544 27.625 10.74 26.4752 10.25C25.9139 10.2309 25.3516 10.2271 24.7904 10.25C24.7904 10.415 24.7904 10.58 24.7904 10.75C24.9244 10.7655 25.0585 10.7809 25.1966 10.7969C25.7531 11 25.7531 11 26.3248 11.6094C27.0046 12.2987 27.4918 12.5085 28.4006 12.75C28.4006 13.41 28.4006 14.07 28.4006 14.75C26.8218 14.7815 26.8218 14.7815 26.2928 14.624C25.5042 14.4428 24.7208 14.484 23.9179 14.5C22.2077 14.5337 22.2077 14.5337 21.6615 14.25C21.4552 13.4214 21.3855 12.6043 21.4208 11.75C21.8571 11.0938 21.8571 11.0938 22.3836 10.75C22.5424 10.75 22.7013 10.75 22.8649 10.75C22.7855 10.585 22.7061 10.42 22.6242 10.25C22.4353 10.2861 22.2464 10.3222 22.0517 10.3594C19.2197 10.8791 19.2197 10.8791 18.0513 10.75C17.5241 10.3448 17.3483 10.1325 17.2502 9.45215C17.2564 9.25654 17.2627 9.06092 17.269 8.85938C17.2728 8.66312 17.2765 8.46686 17.2803 8.26465C17.3292 7.75001 17.3292 7.75001 17.5699 7.25001C19.0432 6.73988 20.6263 7.02504 22.1419 7.21973C22.3011 7.22972 22.4603 7.23971 22.6242 7.25001C22.7037 7.16751 22.7831 7.08501 22.8649 7.00001C24.4355 6.94068 24.4355 6.94068 25.0311 7.25001C26.5925 7.34181 27.8335 6.58095 29.3634 6.75001Z" fill="#5E6670"/>
<path d="M8.42383 27.5C12.3951 27.5 16.3664 27.5 20.458 27.5C20.458 27.5825 20.458 27.665 20.458 27.75C18.9092 27.8738 18.9092 27.8738 17.3291 28C17.488 28.33 17.6468 28.66 17.8105 29C17.9023 29.8571 17.9472 30.7159 17.5698 31.5C17.0138 31.4175 16.4578 31.335 15.885 31.25C15.885 31.415 15.885 31.58 15.885 31.75C16.3616 31.8325 16.8381 31.915 17.3291 32C17.3361 32.9531 17.3404 33.9062 17.3442 34.8594C17.3462 35.1315 17.3482 35.4037 17.3503 35.6841C17.351 35.9427 17.3518 36.2013 17.3526 36.4678C17.3539 36.7074 17.3551 36.9469 17.3564 37.1938C17.3291 37.75 17.3291 37.75 17.0884 38C16.6979 38.0248 16.3063 38.0327 15.9151 38.0332C15.6781 38.0335 15.441 38.0338 15.1968 38.0342C14.9474 38.0332 14.6979 38.0322 14.4409 38.0312C14.0667 38.0327 14.0667 38.0327 13.685 38.0342C13.448 38.0339 13.2109 38.0335 12.9667 38.0332C12.7477 38.0329 12.5286 38.0326 12.303 38.0323C11.7934 38 11.7934 38 11.5527 37.75C11.5314 37.0107 11.525 36.2773 11.5292 35.5381C11.5295 35.3165 11.5299 35.0949 11.5302 34.8666C11.5316 34.1558 11.5346 33.4451 11.5377 32.7344C11.5389 32.2537 11.54 31.7731 11.541 31.2925C11.5436 30.1116 11.5478 28.9308 11.5527 27.75C10.5202 27.75 9.48765 27.75 8.42383 27.75C8.42383 27.6675 8.42383 27.585 8.42383 27.5Z" fill="#618390"/>
<path d="M29.2431 20.25C29.4181 20.2738 29.5931 20.2977 29.7734 20.3222C30.1985 20.3803 30.6234 20.44 31.0482 20.5C31.0482 21.2425 31.0482 21.985 31.0482 22.75C30.8169 22.7597 30.8169 22.7597 30.581 22.7695C29.0861 22.8713 28.2173 23.1783 26.9566 24C25.8606 24.3256 24.7479 24.2959 23.6171 24.2969C23.4301 24.2999 23.243 24.303 23.0502 24.3061C21.7009 24.3097 20.3442 24.2632 19.2548 23.3437C18.5459 22.8375 17.9251 22.9499 17.0886 23C17.2425 23.0722 17.3964 23.1444 17.5549 23.2187C18.0513 23.5 18.0513 23.5 18.292 24C18.315 24.4213 18.3233 24.8436 18.3221 25.2656C18.323 25.6025 18.323 25.6025 18.324 25.9463C18.292 26.5 18.292 26.5 18.0513 26.75C17.5349 26.7719 17.0178 26.7767 16.501 26.7744C16.1869 26.7736 15.8727 26.7728 15.5491 26.772C15.2149 26.7699 14.8806 26.7678 14.5464 26.7656C14.2112 26.7644 13.8761 26.7632 13.5409 26.7622C12.7178 26.7592 11.8947 26.7551 11.0715 26.75C11.0715 25.76 11.0715 24.77 11.0715 23.75C11.5986 24.5711 11.7931 25.3017 12.0343 26.25C13.0668 26.25 14.0993 26.25 15.1631 26.25C15.2426 25.8375 15.322 25.425 15.4038 25C15.5627 24.835 15.7215 24.67 15.8852 24.5C16.1235 24.5 16.3618 24.5 16.6072 24.5C16.6072 24.2525 16.6072 24.005 16.6072 23.75C15.8924 23.6262 15.8924 23.6262 15.1631 23.5C15.0579 22.5594 15.0807 22.1242 15.605 21.334C16.7084 20.4879 17.6608 20.5753 18.999 20.5781C19.498 20.5684 19.9969 20.5573 20.4958 20.5449C20.7372 20.5393 20.9785 20.5338 21.2272 20.5281C22.3498 20.4814 23.4352 20.3037 24.5413 20.1006C26.1365 19.8809 27.6599 20.0246 29.2431 20.25Z" fill="#555252"/>
<path d="M8.42383 27.75C9.45636 27.75 10.4889 27.75 11.5527 27.75C11.8171 31.0851 11.8175 34.4054 11.7934 37.75C13.5408 37.75 15.2881 37.75 17.0884 37.75C17.1678 35.8525 17.2473 33.955 17.3291 32C16.8526 31.9175 16.376 31.835 15.885 31.75C15.885 31.585 15.885 31.42 15.885 31.25C16.3615 31.2851 16.8378 31.3219 17.3141 31.3594C17.5793 31.3797 17.8446 31.4 18.1179 31.4209C18.7732 31.5 18.7732 31.5 19.0139 31.75C19.0179 32.2504 19.0049 32.751 18.9847 33.251C18.9731 33.5547 18.9615 33.8584 18.9495 34.1714C18.936 34.4912 18.9225 34.8111 18.9086 35.1406C18.896 35.4614 18.8835 35.7823 18.8705 36.1128C18.8392 36.9086 18.8067 37.7043 18.7732 38.5C17.4854 38.9111 16.1294 38.806 14.7954 38.8101C14.3062 38.8125 13.8173 38.8203 13.3282 38.8281C12.8659 38.8301 12.8659 38.8301 12.3942 38.832C12.1117 38.8344 11.8291 38.8367 11.5381 38.8391C10.8307 38.75 10.8307 38.75 10.3829 38.4254C9.91753 37.7036 9.90041 36.8755 9.8228 36.0312C9.80327 35.8416 9.78375 35.6519 9.76363 35.4565C9.62887 34.0477 9.60056 32.656 9.6263 31.2402C9.62769 30.1504 9.51801 29.0801 9.38656 28C9.06886 27.9175 8.75116 27.835 8.42383 27.75Z" fill="#8DB0D1"/>
<path d="M21.1801 15.25C23.7212 15.1578 23.7212 15.1578 24.7903 15.75C24.7903 16.1625 24.7903 16.575 24.7903 17C24.9492 17 25.108 17 25.2717 17C25.3469 17.6875 25.3469 17.6875 25.2717 18.5C24.2292 19.7696 22.4355 20.3903 20.8712 20.5595C20.0627 20.6151 19.2557 20.6521 18.4455 20.6682C17.2037 20.6974 16.2446 20.7986 15.2081 21.5782C14.8209 22.1497 14.8691 22.5676 14.9223 23.25C14.3664 23.25 13.8104 23.25 13.2375 23.25C13.2664 21.9985 13.29 21.2289 14.095 20.25C14.2886 20.085 14.4822 19.92 14.6816 19.75C14.6816 19.6675 14.6816 19.585 14.6816 19.5C15.3031 19.3319 15.9249 19.1655 16.5469 19C16.7225 18.9523 16.8982 18.9046 17.0791 18.8555C17.9178 18.6337 18.6243 18.5 19.4953 18.5C19.4953 18.335 19.4953 18.17 19.4953 18C19.7286 17.8608 19.9619 17.7216 20.2023 17.5782C21.0277 17.0591 21.0277 17.0591 21.15 16.0625C21.1599 15.7944 21.1699 15.5263 21.1801 15.25Z" fill="#E5ECF1"/>
<path d="M61.6149 31.75C61.4723 33.4675 61.2325 34.7849 59.915 35.9531C58.6183 36.9562 57.4265 36.9433 55.8385 36.75C54.9551 36.1501 54.7027 35.8303 54.4846 34.7656C54.6836 33.7527 55.0745 33.1359 55.8385 32.5C57.5891 31.4514 59.6673 31.678 61.6149 31.75Z" fill="#080808"/>
<path d="M20.9394 15C21.6542 15 22.369 15 23.1055 15C23.1055 15.0825 23.1055 15.165 23.1055 15.25C22.4701 15.25 21.8347 15.25 21.18 15.25C21.2173 15.6522 21.2173 15.6522 21.2552 16.0625C21.18 17 21.18 17 20.6084 17.6094C19.9766 18 19.9766 18 19.4953 18C19.4953 18.165 19.4953 18.33 19.4953 18.5C19.1816 18.5725 19.1816 18.5725 18.8616 18.6465C18.5842 18.7116 18.3068 18.7767 18.0211 18.8438C17.7474 18.9076 17.4738 18.9714 17.1918 19.0371C16.4149 19.2375 15.6686 19.4487 14.9223 19.75C14.8428 19.915 14.7634 20.08 14.6816 20.25C14.5227 20.25 14.3639 20.25 14.2002 20.25C14.1208 20.4975 14.0414 20.745 13.9595 21C13.8007 21 13.6418 21 13.4782 21C13.4831 21.2784 13.4881 21.5569 13.4932 21.8438C13.4782 22.75 13.4782 22.75 13.2375 23.25C13.9523 23.1263 13.9523 23.1263 14.6816 23C14.7014 22.8144 14.7213 22.6287 14.7418 22.4375C14.9559 21.6219 15.2797 21.2976 15.885 20.75C16.0439 20.8325 16.2027 20.915 16.3664 21C16.2125 21.1341 16.0586 21.2681 15.9 21.4062C15.3109 22.1109 15.2431 22.5847 15.163 23.5C15.6395 23.5825 16.1161 23.665 16.6071 23.75C16.6071 23.9975 16.6071 24.245 16.6071 24.5C16.4581 24.5567 16.3092 24.6134 16.1558 24.6719C15.4945 25.0961 15.42 25.5063 15.163 26.25C14.5264 26.5806 14.0371 26.5242 13.3277 26.5156C13.0864 26.5134 12.845 26.5111 12.5963 26.5088C12.4108 26.5059 12.2252 26.503 12.0341 26.5C11.1607 24.4345 11.1607 24.4345 11.5527 23.25C11.791 23.25 12.0293 23.25 12.2748 23.25C12.2946 23.0334 12.3145 22.8169 12.3349 22.5938C12.7272 20.7603 13.9873 19.5721 15.4036 18.5C16.6394 17.7649 17.8932 17.374 19.2912 17.123C19.7913 17.026 19.7913 17.026 20.2173 16.5C20.3719 15.9828 20.3719 15.9828 20.458 15.5C20.6168 15.5 20.7757 15.5 20.9394 15.5C20.9394 15.335 20.9394 15.17 20.9394 15Z" fill="#7E8D9F"/>
<path d="M29.9349 6.98439C30.5655 7.8158 30.4001 8.73045 30.326 9.75002C30.2069 9.37877 30.2069 9.37877 30.0853 9.00002C29.847 9.08252 29.6088 9.16502 29.3633 9.25002C28.9727 9.2734 28.5812 9.2825 28.1899 9.28127C27.987 9.28191 27.7841 9.28255 27.5751 9.28322C26.9564 9.25002 26.9564 9.25002 26.3976 9.12502C25.7325 8.99604 25.1241 8.96767 24.4481 8.96681C24.0776 8.96633 24.0776 8.96633 23.6997 8.96584C23.444 8.9668 23.1884 8.96777 22.925 8.96877C22.6731 8.9678 22.4211 8.96683 22.1616 8.96584C20.6912 8.96775 19.2683 9.05043 17.8105 9.25002C17.6042 8.48153 17.5326 8.0109 17.8105 7.25002C19.0375 6.61276 20.822 7.0502 22.1418 7.21974C22.301 7.22973 22.4601 7.23972 22.6241 7.25002C22.7036 7.16752 22.783 7.08502 22.8648 7.00002C24.4354 6.94069 24.4354 6.94069 25.031 7.25002C26.7696 7.35224 28.2575 6.29665 29.9349 6.98439Z" fill="#607085"/>
<path d="M12.5156 32C13.707 32 14.8984 32 16.1259 32C16.4341 32.9605 16.4203 33.8739 16.4267 34.875C16.4317 35.068 16.4367 35.2611 16.4418 35.46C16.4513 36.8853 16.4513 36.8853 16.0478 37.4315C15.1449 38.1446 13.5683 37.7825 12.5156 37.75C12.5156 35.8525 12.5156 33.955 12.5156 32Z" fill="#49616E"/>
<path d="M25.2009 20.4432C25.4707 20.4459 25.7404 20.4485 26.0183 20.4512C26.4558 20.4536 26.4558 20.4536 26.9021 20.4561C27.208 20.4602 27.5139 20.4644 27.8291 20.4688C28.1368 20.471 28.4446 20.4733 28.7617 20.4756C29.5239 20.4815 30.286 20.4897 31.0482 20.5C31.0482 20.995 31.0482 21.49 31.0482 22C30.8161 22.0064 30.5841 22.0129 30.3449 22.0195C30.0409 22.0337 29.7368 22.0479 29.4236 22.0625C28.9712 22.0799 28.9712 22.0799 28.5097 22.0977C27.5631 22.2712 27.33 22.516 26.7159 23.25C25.3619 23.5944 23.7717 23.6929 22.3836 23.5C21.9436 23.1523 21.9436 23.1523 21.6615 22.75C21.6615 22.585 21.6615 22.42 21.6615 22.25C21.5027 22.25 21.3438 22.25 21.1802 22.25C21.1802 22.085 21.1802 21.92 21.1802 21.75C20.4654 21.6263 20.4654 21.6263 19.7361 21.5C19.7361 21.335 19.7361 21.17 19.7361 21C20.0432 21.0058 20.3504 21.0116 20.6669 21.0176C21.0686 21.0223 21.4704 21.0268 21.8721 21.0312C22.176 21.0375 22.176 21.0375 22.4861 21.0439C22.7769 21.0464 22.7769 21.0464 23.0737 21.0488C23.2527 21.0514 23.4316 21.0541 23.616 21.0568C24.3318 20.9669 24.4251 20.5109 25.2009 20.4432Z" fill="#454344"/>
<path d="M17.5698 7.25C17.7352 7.87266 17.8105 8.34472 17.8105 9C18.1071 8.95939 18.4037 8.91879 18.7093 8.87695C20.1151 8.71516 21.5121 8.71333 22.925 8.71875C23.1807 8.71778 23.4363 8.71682 23.6997 8.71582C24.0702 8.7163 24.0702 8.7163 24.4481 8.7168C24.67 8.71708 24.8919 8.71736 25.1206 8.71765C25.7555 8.75012 26.3354 8.86447 26.9565 9C27.5028 9.01663 28.0496 9.02136 28.5961 9.01562C29.0154 9.01224 29.0154 9.01224 29.4432 9.00879C29.6551 9.00589 29.867 9.00299 30.0854 9C30.3542 9.94531 30.3542 9.94531 30.1004 10.4375C29.33 10.9225 28.5455 10.8583 27.6785 10.75C27.276 10.5869 26.8748 10.4203 26.4751 10.25C25.9138 10.2309 25.3515 10.2271 24.7903 10.25C24.7903 10.415 24.7903 10.58 24.7903 10.75C25.108 10.915 25.4257 11.08 25.7531 11.25C25.5942 11.415 25.4354 11.58 25.2717 11.75C24.8054 11.4844 24.8054 11.4844 24.309 11C24.1284 10.0781 24.1284 10.0781 24.0683 9.25C23.6712 9.25 23.274 9.25 22.8649 9.25C22.9443 9.58 23.0237 9.91 23.1055 10.25C22.9228 10.2651 22.7401 10.2803 22.5518 10.2959C22.193 10.3273 22.193 10.3273 21.8269 10.3594C21.5896 10.3797 21.3522 10.4 21.1077 10.4209C20.4355 10.4795 20.4355 10.4795 19.736 10.75C18.2028 10.8638 18.2028 10.8638 17.6413 10.4424C17.2427 9.87753 17.247 9.55292 17.269 8.85938C17.2727 8.66312 17.2764 8.46686 17.2803 8.26465C17.3291 7.75 17.3291 7.75 17.5698 7.25Z" fill="#5F6062"/>
<path d="M8.42383 27.5C12.3951 27.5 16.3664 27.5 20.458 27.5C20.458 27.5825 20.458 27.665 20.458 27.75C18.9092 27.8738 18.9092 27.8738 17.3291 28C17.488 28.33 17.6468 28.66 17.8105 29C17.9023 29.8571 17.9472 30.7159 17.5698 31.5C17.0138 31.4175 16.4578 31.335 15.885 31.25C15.8056 30.26 15.7262 29.27 15.6443 28.25C14.6912 28.25 13.7381 28.25 12.7561 28.25C12.7864 28.5932 12.7864 28.5932 12.8172 28.9434C12.8417 29.2405 12.8663 29.5376 12.8915 29.8438C12.9166 30.1396 12.9418 30.4354 12.9677 30.7402C12.9968 31.5 12.9968 31.5 12.7561 32C12.5178 32 12.2796 32 12.0341 32C12.1135 33.98 12.1929 35.96 12.2748 38C12.0365 37.9175 11.7982 37.835 11.5527 37.75C11.5527 34.45 11.5527 31.15 11.5527 27.75C10.5202 27.75 9.48765 27.75 8.42383 27.75C8.42383 27.6675 8.42383 27.585 8.42383 27.5Z" fill="#738189"/>
<path d="M17.0886 27.75C18.28 27.75 19.4714 27.75 20.6989 27.75C20.7484 30.0653 20.574 32.2176 20.2175 34.5C20.157 34.9583 20.157 34.9583 20.0953 35.4258C20.0562 35.7184 20.0171 36.011 19.9768 36.3125C19.9421 36.5768 19.9073 36.841 19.8715 37.1133C19.7361 37.75 19.7361 37.75 19.2548 38.25C19.2548 36.105 19.2548 33.96 19.2548 31.75C18.6988 31.6675 18.1428 31.585 17.57 31.5C17.5756 31.334 17.5812 31.1681 17.5869 30.9971C17.5913 30.7763 17.5956 30.5556 17.6001 30.3281C17.6085 30.0018 17.6085 30.0018 17.617 29.6689C17.5942 28.88 17.5942 28.88 17.0886 27.75Z" fill="#989B98"/>
<path d="M23.5869 15.5C24.1826 15.6237 24.1826 15.6237 24.7903 15.75C24.7903 16.1625 24.7903 16.575 24.7903 17C24.9492 17 25.108 17 25.2717 17C25.3469 17.6875 25.3469 17.6875 25.2717 18.5C24.2292 19.7696 22.4355 20.3902 20.8712 20.5594C20.0627 20.6151 19.2557 20.652 18.4455 20.6682C17.2037 20.6974 16.2446 20.7985 15.2081 21.5781C14.8209 22.1497 14.8691 22.5676 14.9223 23.25C14.3664 23.25 13.8104 23.25 13.2375 23.25C13.2664 21.9985 13.29 21.2289 14.095 20.25C14.2886 20.085 14.4822 19.92 14.6816 19.75C14.6816 19.6675 14.6816 19.585 14.6816 19.5C15.3028 19.3252 15.9245 19.1538 16.5469 18.9844C16.7225 18.9346 16.8982 18.8848 17.0791 18.8335C17.9815 18.5906 18.6054 18.4614 19.4953 18.75C19.1445 18.834 18.7934 18.9172 18.4423 19C18.2469 19.0464 18.0514 19.0928 17.85 19.1406C17.3292 19.25 17.3292 19.25 16.8478 19.25C16.8478 19.415 16.8478 19.58 16.8478 19.75C17.58 19.7214 18.312 19.6897 19.044 19.6562C19.353 19.6446 19.353 19.6446 19.6683 19.6328C20.8175 19.5777 21.7851 19.4513 22.8649 19C23.0932 18.9072 23.3216 18.8144 23.5568 18.7187C23.7256 18.6466 23.8944 18.5744 24.0683 18.5C24.1195 17.3829 23.9699 16.5443 23.5869 15.5Z" fill="#C1CDD9"/>
<path d="M15.8851 31.25C16.3615 31.2851 16.8379 31.3219 17.3141 31.3594C17.5794 31.3797 17.8447 31.4 18.118 31.4209C18.7733 31.5 18.7733 31.5 19.014 31.75C19.018 32.2504 19.005 32.751 18.9848 33.251C18.9732 33.5547 18.9615 33.8584 18.9496 34.1714C18.9361 34.4912 18.9226 34.8111 18.9087 35.1406C18.8961 35.4614 18.8835 35.7823 18.8706 36.1128C18.8392 36.9086 18.8068 37.7043 18.7733 38.5C17.9685 38.7527 17.239 38.7789 16.4003 38.7744C16.1319 38.7736 15.8635 38.7728 15.587 38.772C15.3081 38.7699 15.0292 38.7678 14.7418 38.7656C14.4592 38.7645 14.1765 38.7634 13.8853 38.7622C13.188 38.7593 12.4907 38.7552 11.7935 38.75C12.2748 38 12.2748 38 12.7714 37.8919C12.9705 37.8854 13.1696 37.8788 13.3748 37.8721C13.5691 37.8638 13.7633 37.8555 13.9635 37.847C14.3339 37.8376 14.3339 37.8376 14.7117 37.8281C15.4961 37.8023 16.2804 37.7766 17.0885 37.75C17.1679 35.8525 17.2473 33.955 17.3292 32C16.6143 31.8763 16.6143 31.8763 15.8851 31.75C15.8851 31.585 15.8851 31.42 15.8851 31.25Z" fill="#749CBC"/>
<path d="M21.4207 12C21.5001 12.7425 21.5796 13.485 21.6614 14.25C22.1575 14.2413 22.1575 14.2413 22.6636 14.2324C23.1017 14.2277 23.5399 14.2232 23.978 14.2188C24.1955 14.2146 24.4129 14.2104 24.637 14.2061C25.8318 14.197 26.7986 14.2589 27.9192 14.75C27.7603 14.8325 27.6015 14.915 27.4378 15C27.4378 15.66 27.4378 16.32 27.4378 17C27.2789 17 27.1201 17 26.9564 17C26.877 16.505 26.7976 16.01 26.7157 15.5C26.3853 15.5044 26.3853 15.5044 26.0482 15.5088C25.6191 15.5122 25.6191 15.5122 25.1814 15.5156C24.8966 15.5185 24.6118 15.5214 24.3183 15.5244C23.5869 15.5 23.5869 15.5 23.1055 15.25C22.7356 15.1938 22.3643 15.148 21.9923 15.1094C21.7956 15.0884 21.5989 15.0675 21.3963 15.0459C21.2455 15.0308 21.0947 15.0156 20.9393 15C20.9393 15.165 20.9393 15.33 20.9393 15.5C20.7805 15.5 20.6216 15.5 20.458 15.5C20.3786 15.83 20.2991 16.16 20.2173 16.5C20.2173 16.005 20.2173 15.51 20.2173 15C19.979 15 19.7407 15 19.4952 15C19.1394 14.2608 19.24 13.5644 19.2546 12.75C20.8792 12 20.8792 12 21.4207 12Z" fill="#5F5F60"/>
<path d="M11.0715 23.75C11.5986 24.5712 11.7931 25.3017 12.0343 26.25C13.0668 26.25 14.0993 26.25 15.1631 26.25C15.2426 25.8375 15.322 25.425 15.4038 25C15.5627 24.835 15.7215 24.67 15.8852 24.5C16.1235 24.5 16.3618 24.5 16.6072 24.5C16.6867 24.2525 16.7661 24.005 16.8479 23.75C17.8107 23.75 17.8107 23.75 18.292 24C18.2985 24.4114 18.3032 24.8229 18.3071 25.2344C18.3099 25.4635 18.3127 25.6926 18.3155 25.9287C18.292 26.5 18.292 26.5 18.0513 26.75C17.5349 26.7719 17.0178 26.7767 16.501 26.7744C16.1869 26.7736 15.8727 26.7728 15.5491 26.772C15.2149 26.7699 14.8806 26.7678 14.5464 26.7656C14.2112 26.7644 13.8761 26.7632 13.5409 26.7622C12.7178 26.7592 11.8947 26.7551 11.0715 26.75C11.0715 25.76 11.0715 24.77 11.0715 23.75Z" fill="#77726B"/>
<path d="M19.014 31.75C19.0934 31.75 19.1729 31.75 19.2547 31.75C19.3738 34.72 19.3738 34.72 19.4954 37.75C19.6542 36.6775 19.8131 35.605 19.9767 34.5C20.0562 34.5 20.1356 34.5 20.2174 34.5C20.1965 35.2347 20.1708 35.9687 20.1422 36.7031C20.1368 36.9115 20.1313 37.1198 20.1258 37.3345C20.1172 37.5351 20.1087 37.7357 20.0999 37.9424C20.0936 38.127 20.0873 38.3116 20.0808 38.5018C19.9475 39.1398 19.7531 39.3588 19.2547 39.75C18.3898 40.1019 17.4832 40.0283 16.5658 40.0244C16.3194 40.0239 16.3194 40.0239 16.0681 40.0233C15.5458 40.0219 15.0235 40.0188 14.5012 40.0156C14.1461 40.0144 13.791 40.0132 13.436 40.0122C12.5676 40.0095 11.6992 40.0051 10.8308 40C10.8308 39.9175 10.8308 39.835 10.8308 39.75C11.0359 39.745 11.241 39.7401 11.4524 39.735C12.2172 39.7154 12.982 39.6937 13.7468 39.6707C14.0771 39.6611 14.4074 39.6524 14.7377 39.6445C15.2139 39.633 15.6901 39.6183 16.1662 39.6035C16.4523 39.5957 16.7385 39.5878 17.0332 39.5797C17.9047 39.5282 17.9047 39.5282 19.014 39C16.2341 39 13.4542 39 10.5901 39C10.5901 38.9175 10.5901 38.835 10.5901 38.75C13.2906 38.6675 15.991 38.585 18.7733 38.5C18.7639 37.0268 18.7639 37.0268 18.7516 35.5537C18.7475 34.262 18.8331 33.0282 19.014 31.75Z" fill="#778694"/>
<path d="M26.9566 15.5C26.9566 15.995 26.9566 16.49 26.9566 17C27.1948 17.0825 27.4331 17.165 27.6786 17.25C27.7034 17.4872 27.7282 17.7244 27.7538 17.9687C27.8436 18.8228 27.8436 18.8228 28.6413 19.25C28.4825 19.415 28.3236 19.58 28.16 19.75C27.9217 19.6675 27.6834 19.585 27.4379 19.5C27.4379 19.335 27.4379 19.17 27.4379 19C27.2754 19.039 27.1128 19.078 26.9453 19.1181C26.6232 19.1911 26.6232 19.1911 26.2947 19.2656C25.9764 19.3396 25.9764 19.3396 25.6516 19.415C25.0343 19.4995 24.653 19.4529 24.0684 19.25C24.2992 19.1108 24.2992 19.1108 24.5347 18.9687C25.1848 18.3549 25.1957 17.8885 25.2718 17C25.1129 17 24.9541 17 24.7904 17C24.7904 16.5875 24.7904 16.175 24.7904 15.75C24.5521 15.6675 24.3139 15.585 24.0684 15.5C26.1314 15.1786 26.1314 15.1786 26.9566 15.5Z" fill="#7D8C9F"/>
<path d="M8.18329 27.75C8.77898 27.8738 8.77898 27.8738 9.3867 28C9.46842 28.3903 9.54828 28.781 9.62739 29.1719C9.67206 29.3894 9.71674 29.6069 9.76277 29.8311C9.8656 30.4843 9.8864 31.0895 9.86807 31.75C9.70922 31.75 9.55037 31.75 9.3867 31.75C9.3895 31.8963 9.39229 32.0426 9.39517 32.1934C9.41819 34.4684 9.28063 36.7305 9.14602 39C9.0666 39 8.98717 39 8.90534 39C8.80132 37.7596 8.69854 36.519 8.59684 35.2784C8.56215 34.8572 8.52714 34.4361 8.49178 34.015C8.44073 33.4062 8.39088 32.7974 8.34124 32.1885C8.32544 32.0032 8.30965 31.818 8.29338 31.6271C8.18927 30.3308 8.17029 29.0509 8.18329 27.75Z" fill="#91989B"/>
<path d="M21.6614 12.5C22.3784 12.4933 23.0954 12.4883 23.8125 12.4844C24.0171 12.4823 24.2217 12.4802 24.4325 12.478C24.6272 12.4772 24.8219 12.4764 25.0225 12.4756C25.2027 12.4743 25.383 12.473 25.5687 12.4716C25.9937 12.5 25.9937 12.5 26.2344 12.75C26.2442 13.2499 26.2446 13.7501 26.2344 14.25C25.5041 14.6293 24.7479 14.5359 23.9479 14.5312C23.7819 14.5322 23.6159 14.5332 23.4449 14.5342C22.2037 14.5317 22.2037 14.5317 21.6614 14.25C21.6614 13.6725 21.6614 13.095 21.6614 12.5Z" fill="#B3BCC3"/>
<path d="M11.5527 23.5C12.0642 23.4933 12.5756 23.4884 13.0871 23.4844C13.3719 23.4815 13.6567 23.4786 13.9502 23.4756C14.6816 23.5 14.6816 23.5 15.163 23.75C15.0836 24.3275 15.0041 24.905 14.9223 25.5C14.7634 25.5 14.6046 25.5 14.4409 25.5C14.4409 25.7475 14.4409 25.995 14.4409 26.25C13.7261 26.25 13.0113 26.25 12.2748 26.25C11.5527 24.3438 11.5527 24.3438 11.5527 23.5Z" fill="#9AA4AE"/>
<path d="M19.4952 6.99997C19.4952 7.16497 19.4952 7.32997 19.4952 7.49997C20.4575 7.73902 21.3504 7.77596 22.3383 7.7656C22.7576 7.76221 22.7576 7.76221 23.1854 7.75876C23.3973 7.75586 23.6092 7.75296 23.8275 7.74997C23.907 8.07997 23.9864 8.40997 24.0682 8.74997C23.798 8.76512 23.5278 8.78026 23.2493 8.79587C21.4295 8.90071 19.6195 9.01082 17.8105 9.24997C17.6042 8.48148 17.5326 8.01085 17.8105 7.24997C18.4032 6.94212 18.8405 6.98207 19.4952 6.99997Z" fill="#A8B6C3"/>
<path d="M17.3443 20.9844C17.6943 20.9921 17.6943 20.9921 18.0513 21C18.0513 21.165 18.0513 21.33 18.0513 21.5C17.813 21.5825 17.5747 21.665 17.3292 21.75C18.2281 21.9697 19.0544 22.0223 19.9768 22C19.9718 22.1959 19.9668 22.3919 19.9617 22.5938C19.9318 23.2453 19.9318 23.2453 20.2174 23.75C19.7361 23.5 19.2547 23.25 18.7733 23C18.2118 22.9899 17.6501 22.9892 17.0886 23C17.4063 23.165 17.724 23.33 18.0513 23.5C17.813 23.8712 17.813 23.8712 17.5699 24.25C16.7757 24.0025 15.9814 23.755 15.1631 23.5C15.0879 22.7969 15.0879 22.7969 15.1631 22C15.7498 21.5469 15.7498 21.5469 16.3665 21.25C16.6072 21 16.6072 21 17.3443 20.9844Z" fill="#3E3C3F"/>
<path d="M22.1429 16.75C22.8048 16.8125 22.8048 16.8125 23.3463 17C23.4257 17.2475 23.5052 17.495 23.587 17.75C23.2183 18.5086 22.9168 18.7274 22.1589 19.0576C20.3014 19.5846 18.5333 19.9267 16.6072 20C16.6866 19.7525 16.766 19.505 16.8479 19.25C17.3913 19.0391 17.3913 19.0391 18.0814 18.875C20.0682 18.3954 20.0682 18.3954 21.6916 17.1875C21.8405 17.0431 21.9895 16.8988 22.1429 16.75Z" fill="#EDF2F5"/>
<path d="M23.5871 15.5C24.1828 15.6238 24.1828 15.6238 24.7905 15.75C24.7905 16.1625 24.7905 16.575 24.7905 17C24.9493 17 25.1082 17 25.2719 17C25.3471 17.6875 25.3471 17.6875 25.2719 18.5C24.3186 19.6608 22.8232 20.1851 21.4209 20.5C19.9783 20.6137 18.5327 20.5594 17.0886 20.5C17.0886 20.4175 17.0886 20.335 17.0886 20.25C17.3846 20.2017 17.6806 20.1533 17.9855 20.1035C18.3785 20.0378 18.7715 19.9721 19.1645 19.9062C19.359 19.8747 19.5536 19.8431 19.754 19.8105C21.274 19.5538 22.6436 19.1094 24.0684 18.5C24.1196 17.3829 23.9701 16.5443 23.5871 15.5Z" fill="#B5BBBE"/>
<path d="M27.438 19C27.438 19.165 27.438 19.33 27.438 19.5C28.0337 19.6238 28.0337 19.6238 28.6414 19.75C28.6414 19.915 28.6414 20.08 28.6414 20.25C28.4372 20.2442 28.2331 20.2384 28.0227 20.2324C26.5486 20.2089 25.1473 20.2424 23.6923 20.5C21.4238 20.8824 19.1394 20.7943 16.8479 20.75C16.8479 20.6675 16.8479 20.585 16.8479 20.5C17.3054 20.486 17.3054 20.486 17.7721 20.4717C18.1811 20.4553 18.59 20.4387 18.999 20.4219C19.199 20.4163 19.3989 20.4106 19.6049 20.4048C21.0464 20.3407 22.2406 20.0201 23.587 19.5C24.909 19.082 26.0538 18.9487 27.438 19Z" fill="#75767A"/>
<path d="M25.7532 11.75C26.1043 11.8693 26.4553 11.9892 26.8062 12.1094C27.0016 12.1761 27.1971 12.2428 27.3985 12.3115C27.9193 12.5 27.9193 12.5 28.4007 12.75C28.4007 13.41 28.4007 14.07 28.4007 14.75C27.5884 14.7812 27.5884 14.7812 26.7159 14.75C26.2346 14.25 26.2346 14.25 25.9939 12.75C24.4848 12.75 22.9757 12.75 21.4209 12.75C21.4209 12.5025 21.4209 12.255 21.4209 12C21.8598 12.0044 21.8598 12.0044 22.3075 12.0088C22.6889 12.0111 23.0703 12.0134 23.4517 12.0156C23.6448 12.0177 23.8379 12.0198 24.0369 12.022C24.5288 12.0241 25.0208 12.0131 25.5125 12C25.5919 11.9175 25.6714 11.835 25.7532 11.75Z" fill="#8C867D"/>
<path d="M13.2375 28.25C13.9524 28.25 14.6672 28.25 15.4037 28.25C15.4037 29.24 15.4037 30.23 15.4037 31.25C14.6889 31.25 13.974 31.25 13.2375 31.25C13.2375 30.26 13.2375 29.27 13.2375 28.25Z" fill="#4B6370"/>
<path d="M17.0886 27.75C18.2006 27.75 19.3125 27.75 20.4582 27.75C20.4582 27.915 20.4582 28.08 20.4582 28.25C20.1405 28.1675 19.8228 28.085 19.4955 28C19.5004 28.2423 19.5054 28.4847 19.5105 28.7344C19.4955 29.5 19.4955 29.5 19.2548 29.75C19.1992 30.0869 19.1557 30.4259 19.1194 30.7656C19.0846 31.0905 19.0499 31.4153 19.0141 31.75C18.2993 31.6263 18.2993 31.6263 17.57 31.5C17.5756 31.334 17.5812 31.1681 17.5869 30.9971C17.5913 30.7763 17.5956 30.5556 17.6001 30.3281C17.6085 30.0018 17.6085 30.0018 17.617 29.6689C17.5942 28.88 17.5942 28.88 17.0886 27.75Z" fill="#A2AAAE"/>
<path d="M8.42383 27.75C9.37693 27.75 10.33 27.75 11.312 27.75C11.312 29.07 11.312 30.39 11.312 31.75C10.8355 31.75 10.3589 31.75 9.86793 31.75C9.70908 30.5125 9.55023 29.275 9.38656 28C9.06886 27.9175 8.75116 27.835 8.42383 27.75Z" fill="#AEBBC2"/>
<path d="M12.0343 32C12.1931 32 12.352 32 12.5156 32C12.5156 33.8975 12.5156 35.795 12.5156 37.75C14.0878 37.6891 14.0878 37.6891 15.6445 37.5C16.1421 36.7248 16.1848 36.5677 16.1729 35.6924C16.1713 35.4918 16.1698 35.2912 16.1682 35.0845C16.1642 34.8761 16.1601 34.6678 16.156 34.4531C16.1538 34.2419 16.1516 34.0306 16.1494 33.813C16.1437 33.292 16.1351 32.771 16.1259 32.25C16.2847 32.25 16.4436 32.25 16.6072 32.25C16.6072 34.1475 16.6072 36.045 16.6072 38C15.8974 38.0052 15.1875 38.0103 14.4561 38.0156C14.1202 38.019 14.1202 38.019 13.7774 38.0225C13.5144 38.0235 13.5144 38.0235 13.2461 38.0244C13.0659 38.0257 12.8857 38.027 12.7 38.0284C12.2749 38 12.2749 38 12.0343 37.75C12.0133 37.3231 12.0085 36.8953 12.0108 36.4678C12.0115 36.2092 12.0123 35.9505 12.0131 35.6841C12.0151 35.4119 12.0171 35.1398 12.0192 34.8594C12.0203 34.5863 12.0214 34.3131 12.0225 34.0317C12.0254 33.3545 12.0293 32.6772 12.0343 32Z" fill="#5A7981"/>
<path d="M11.3121 27.75C11.3916 27.75 11.471 27.75 11.5528 27.75C11.7004 29.6117 11.8053 31.4567 11.7841 33.3252C11.7812 33.5943 11.7782 33.8634 11.7752 34.1406C11.7674 34.6781 11.7565 35.2156 11.7423 35.7529C11.7387 36.0011 11.7351 36.2492 11.7315 36.5049C11.7261 36.7269 11.7208 36.9488 11.7154 37.1776C11.8089 37.8629 12.0043 38.0746 12.5156 38.5C11.6816 38.6237 11.6816 38.6237 10.8308 38.75C10.7513 38.585 10.6719 38.42 10.5901 38.25C10.9475 38.1263 10.9475 38.1263 11.3121 38C11.2327 37.9175 11.1533 37.835 11.0715 37.75C10.9792 36.7531 10.9583 35.7506 10.921 34.75C10.9086 34.4671 10.8962 34.1841 10.8834 33.8926C10.8729 33.6238 10.8623 33.355 10.8515 33.0781C10.8367 32.7054 10.8367 32.7054 10.8217 32.3252C10.8308 31.75 10.8308 31.75 11.0715 31.5C11.0889 30.6661 11.0705 29.8349 11.0564 29.001C11.0715 28.25 11.0715 28.25 11.3121 27.75Z" fill="#92A8B9"/>
<path d="M11.3121 26.75C13.4566 26.75 15.601 26.75 17.8105 26.75C17.8105 26.8325 17.8105 26.915 17.8105 27C18.6048 27.0825 19.399 27.165 20.2173 27.25C20.2173 27.3325 20.2173 27.415 20.2173 27.5C16.4049 27.5 12.5925 27.5 8.66455 27.5C8.66455 27.4175 8.66455 27.335 8.66455 27.25C9.97507 27.1262 9.97507 27.1262 11.3121 27C11.3121 26.9175 11.3121 26.835 11.3121 26.75Z" fill="#0D1011"/>
<path d="M9.38658 31.75C9.466 31.75 9.54543 31.75 9.62726 31.75C9.64787 31.9367 9.66849 32.1234 9.68972 32.3158C9.78329 33.1586 9.87825 34.0012 9.97324 34.8438C10.0057 35.1377 10.0381 35.4316 10.0715 35.7344C10.1033 36.0147 10.1351 36.2951 10.1679 36.584C10.1968 36.8432 10.2258 37.1024 10.2557 37.3695C10.3172 37.997 10.3172 37.997 10.59 38.5C10.4311 38.5 10.2723 38.5 10.1086 38.5C10.1881 38.7475 10.2675 38.995 10.3493 39.25C9.95218 39.25 9.55506 39.25 9.14589 39.25C9.09981 34.117 9.09981 34.117 9.38658 31.75Z" fill="#96A3AC"/>
<path d="M21.4208 12C21.6994 12.8683 21.678 13.5902 21.6615 14.5C20.8672 14.5 20.073 14.5 19.2546 14.5C19.2546 13.9225 19.2546 13.345 19.2546 12.75C20.8793 12 20.8793 12 21.4208 12Z" fill="#6A6F72"/>
<path d="M20.5334 21.375C21.1802 21.75 21.1802 21.75 21.3767 22.2285C21.4985 22.7294 21.5824 23.2399 21.6616 23.75C21.185 23.75 20.7085 23.75 20.2175 23.75C19.9617 23.2969 19.9617 23.2969 19.7361 22.75C19.8155 22.5025 19.895 22.255 19.9768 22C19.8114 22.0238 19.646 22.0477 19.4757 22.0723C19.2588 22.1 19.0419 22.1277 18.8185 22.1562C18.6035 22.1852 18.3885 22.2142 18.167 22.2441C17.57 22.25 17.57 22.25 16.8479 21.75C18.1049 21.1169 19.1726 21.1616 20.5334 21.375Z" fill="#4A535E"/>
<path d="M27.9192 20.75C28.6506 20.6768 28.6506 20.6768 29.5137 20.7031C29.7997 20.7099 30.0858 20.7167 30.3805 20.7236C30.6008 20.7323 30.8211 20.7411 31.048 20.75C31.048 21.1625 31.048 21.575 31.048 22C29.4595 22.0825 27.871 22.165 26.2344 22.25C26.3138 22.085 26.3932 21.92 26.4751 21.75C26.6289 21.7139 26.7828 21.6778 26.9414 21.6406C27.5298 21.5346 27.5298 21.5346 27.9192 20.75Z" fill="#414041"/>
<path d="M11.0715 23.75C11.5529 24.5 11.5529 24.5 12.0343 26.25C14.0199 26.25 16.0055 26.25 18.0513 26.25C18.0513 25.5075 18.0513 24.765 18.0513 24C18.1308 24 18.2102 24 18.292 24C18.2985 24.4114 18.3032 24.8229 18.3071 25.2344C18.3099 25.4635 18.3127 25.6926 18.3155 25.9287C18.292 26.5 18.292 26.5 18.0513 26.75C17.5349 26.7719 17.0178 26.7767 16.501 26.7744C16.1869 26.7736 15.8727 26.7728 15.5491 26.772C15.2149 26.7699 14.8806 26.7678 14.5464 26.7656C14.2112 26.7644 13.8761 26.7632 13.5409 26.7622C12.7178 26.7592 11.8947 26.7551 11.0715 26.75C11.0715 25.76 11.0715 24.77 11.0715 23.75Z" fill="#414346"/>
<path d="M18.2919 37.75C18.2919 37.915 18.2919 38.08 18.2919 38.25C17.5079 38.7343 16.9306 38.8093 16.0242 38.7988C15.6542 38.7964 15.6542 38.7964 15.2768 38.7939C15.0208 38.7898 14.7649 38.7856 14.5011 38.7812C14.1116 38.7779 14.1116 38.7779 13.7142 38.7744C13.0739 38.7685 12.4337 38.7603 11.7935 38.75C11.9523 38.5025 12.1112 38.255 12.2748 38C12.8041 37.8919 12.8041 37.8919 13.4547 37.8721C13.6888 37.8632 13.9229 37.8543 14.1641 37.8452C14.4094 37.8396 14.6546 37.8339 14.9073 37.8281C15.1516 37.8196 15.3959 37.811 15.6477 37.8022C16.5294 37.7725 17.4097 37.75 18.2919 37.75Z" fill="#749EC7"/>
<path d="M29.1227 7.24997C29.1528 7.84372 29.1528 7.84372 29.1227 8.49997C28.9639 8.66497 28.805 8.82997 28.6414 8.99997C27.9626 8.99411 27.9626 8.99411 27.1672 8.90622C26.9035 8.8785 26.6398 8.85079 26.368 8.82224C26.0637 8.78646 26.0637 8.78646 25.7532 8.74997C25.7532 8.50247 25.7532 8.25497 25.7532 7.99997C26.9397 7.48999 27.8181 7.14834 29.1227 7.24997Z" fill="#B0BFCD"/>
<path d="M11.312 23.5C11.9013 24.4181 12.2747 25.1366 12.2747 26.25C12.9896 26.25 13.7044 26.25 14.4409 26.25C14.4409 26.0025 14.4409 25.755 14.4409 25.5C14.5997 25.5 14.7586 25.5 14.9223 25.5C15.0017 24.9225 15.0811 24.345 15.1629 23.75C15.6395 23.75 16.116 23.75 16.607 23.75C16.607 23.9975 16.607 24.245 16.607 24.5C16.4581 24.5567 16.3092 24.6134 16.1558 24.6719C15.4945 25.0961 15.42 25.5063 15.1629 26.25C14.5264 26.5806 14.0371 26.5242 13.3277 26.5156C13.0864 26.5134 12.845 26.5111 12.5963 26.5088C12.4107 26.5059 12.2252 26.503 12.0341 26.5C11.9117 26.1883 11.7919 25.8756 11.673 25.5625C11.606 25.3885 11.539 25.2145 11.47 25.0352C11.312 24.5 11.312 24.5 11.312 23.5Z" fill="#828B95"/>
<path d="M28.4007 7C29.0927 6.96875 29.0927 6.96875 29.8448 7C30.3262 7.5 30.3262 7.5 30.3732 8.04102C30.3676 8.24404 30.362 8.44707 30.3562 8.65625C30.3519 8.86057 30.3476 9.06488 30.3431 9.27539C30.3375 9.43201 30.3319 9.58863 30.3262 9.75C30.2467 9.5025 30.1673 9.255 30.0855 9C29.8472 9.0825 29.6089 9.165 29.3634 9.25C28.1481 9.32275 26.9359 9.32759 25.7532 9C25.7532 8.9175 25.7532 8.835 25.7532 8.75C26.7063 8.75 27.6594 8.75 28.6414 8.75C28.8002 8.255 28.9591 7.76 29.1227 7.25C28.8845 7.1675 28.6462 7.085 28.4007 7Z" fill="#8A9096"/>
<path d="M27.9192 17.5C29.0311 17.5 30.1431 17.5 31.2888 17.5C31.2888 18.4075 31.2888 19.315 31.2888 20.25C31.2093 20.25 31.1299 20.25 31.0481 20.25C31.0481 19.6725 31.0481 19.095 31.0481 18.5C30.0155 18.5 28.983 18.5 27.9192 18.5C27.9192 18.17 27.9192 17.84 27.9192 17.5Z" fill="#516074"/>
<path d="M12.9968 20.75C13.0763 20.75 13.1557 20.75 13.2375 20.75C13.1581 21.575 13.0787 22.4 12.9968 23.25C13.8308 23.1262 13.8308 23.1262 14.6816 23C14.7015 22.8144 14.7213 22.6287 14.7418 22.4375C14.9559 21.6219 15.2797 21.2976 15.885 20.75C16.0439 20.8325 16.2027 20.915 16.3664 21C16.2125 21.1341 16.0586 21.2681 15.9001 21.4062C15.3109 22.1109 15.2431 22.5847 15.163 23.5C15.3218 23.5825 15.4807 23.665 15.6443 23.75C14.2941 23.6675 12.9439 23.585 11.5527 23.5C11.791 23.4175 12.0293 23.335 12.2748 23.25C12.3046 23.0231 12.3344 22.7962 12.365 22.5625C12.4965 21.8526 12.6533 21.3685 12.9968 20.75Z" fill="#707883"/>
<path d="M11.7934 31.5C12.1111 31.5 12.4288 31.5 12.7561 31.5C12.7561 31.665 12.7561 31.83 12.7561 32C12.5179 32 12.2796 32 12.0341 32C12.1135 33.98 12.1929 35.96 12.2748 38C12.0365 37.9175 11.7982 37.835 11.5527 37.75C11.5458 36.7552 11.5415 35.7604 11.5377 34.7656C11.5357 34.4815 11.5336 34.1975 11.5316 33.9048C11.5308 33.6349 11.53 33.365 11.5292 33.0869C11.5279 32.8369 11.5267 32.5868 11.5254 32.3292C11.5527 31.75 11.5527 31.75 11.7934 31.5Z" fill="#71939F"/>
<path d="M12.2749 23.75C13.0692 23.75 13.8634 23.75 14.6817 23.75C14.7612 23.9975 14.8406 24.245 14.9224 24.5C14.6516 24.875 14.6516 24.875 14.2004 25.25C13.4633 25.3438 13.4633 25.3438 12.7563 25.25C12.2749 24.5 12.2749 24.5 12.2749 23.75Z" fill="#D0D7DB"/>
<path d="M27.6785 9.5C28.4728 9.5 29.267 9.5 30.0853 9.5C30.0853 9.7475 30.0853 9.995 30.0853 10.25C29.604 10.75 29.604 10.75 28.6864 10.8125C27.8584 10.7937 27.2239 10.6389 26.4751 10.25C26.4751 10.1675 26.4751 10.085 26.4751 10C26.8722 10 27.2694 10 27.6785 10C27.6785 9.835 27.6785 9.67 27.6785 9.5Z" fill="#4A4B4E"/>
<path d="M12.0342 28C12.2725 28 12.5108 28 12.7563 28C12.7563 29.155 12.7563 30.31 12.7563 31.5C12.4386 31.5 12.1209 31.5 11.7935 31.5C11.7871 30.9636 11.7824 30.4271 11.7785 29.8906C11.7757 29.5919 11.7729 29.2931 11.77 28.9854C11.7935 28.25 11.7935 28.25 12.0342 28Z" fill="#7C7F80"/>
<path d="M23.3463 16.25C23.5051 16.25 23.664 16.25 23.8277 16.25C24.3816 17.1131 24.392 17.4868 24.309 18.5C23.7525 19.078 23.4864 19.1155 22.7295 19.2656C22.0062 19.3662 22.0062 19.3662 21.4208 19.75C20.7781 19.7853 20.1394 19.7606 19.4954 19.75C20.2017 19.3577 20.893 19.0918 21.6615 18.8594C21.865 18.7972 22.0686 18.735 22.2783 18.6709C22.7923 18.5212 23.3098 18.3845 23.8277 18.25C23.6688 17.59 23.51 16.93 23.3463 16.25Z" fill="#D7DFE3"/>
<path d="M16.1257 28.25C16.4434 28.25 16.7611 28.25 17.0885 28.25C17.0885 29.3225 17.0885 30.395 17.0885 31.5C16.7708 31.4175 16.4531 31.335 16.1257 31.25C16.1257 30.26 16.1257 29.27 16.1257 28.25Z" fill="#7D7E7E"/>
<path d="M16.6071 21.75C17.0774 21.8079 17.5475 21.8671 18.0165 21.9355C18.6722 22.0174 19.3171 22.0171 19.9767 22C19.9717 22.1959 19.9668 22.3919 19.9617 22.5938C19.9317 23.2453 19.9317 23.2453 20.2174 23.75C20.0812 23.6752 19.945 23.6005 19.8047 23.5234C19.0897 23.168 18.3548 22.9389 17.599 22.6953C17.0885 22.5 17.0885 22.5 16.3665 22C16.4459 21.9175 16.5253 21.835 16.6071 21.75Z" fill="#43474C"/>
<path d="M24.0684 9.24997C25.6384 9.15766 25.6384 9.15766 26.2195 9.62497C26.3039 9.74872 26.3882 9.87247 26.4752 9.99997C25.9192 10.0825 25.3632 10.165 24.7904 10.25C24.7904 10.415 24.7904 10.58 24.7904 10.75C25.1081 10.915 25.4258 11.08 25.7531 11.25C25.5943 11.415 25.4354 11.58 25.2718 11.75C24.8055 11.4843 24.8055 11.4843 24.309 11C24.1285 10.0781 24.1285 10.0781 24.0684 9.24997Z" fill="#4A4C4F"/>
<path d="M11.3121 32C11.3916 32 11.471 32 11.5528 32C11.5563 32.1703 11.5598 32.3405 11.5635 32.5159C11.5814 33.2868 11.6046 34.0574 11.628 34.8281C11.6335 35.0961 11.6389 35.3641 11.6445 35.6401C11.653 35.8971 11.6616 36.1542 11.6703 36.4189C11.6766 36.6559 11.6829 36.8929 11.6894 37.137C11.8084 37.8379 11.9876 38.064 12.5156 38.5C11.9596 38.5825 11.4036 38.665 10.8308 38.75C10.7513 38.585 10.6719 38.42 10.5901 38.25C10.8284 38.1675 11.0666 38.085 11.3121 38C11.3121 36.02 11.3121 34.04 11.3121 32Z" fill="#7FA3BE"/>
<path d="M12.5156 32C13.707 32 14.8984 32 16.1259 32C16.1259 32.0825 16.1259 32.165 16.1259 32.25C15.8173 32.2727 15.8173 32.2727 15.5025 32.2959C15.1037 32.3273 15.1037 32.3273 14.6968 32.3594C14.4315 32.3797 14.1663 32.4 13.893 32.4209C13.2591 32.426 13.2591 32.426 12.997 32.75C12.9593 33.1216 12.9367 33.4949 12.9208 33.8682C12.9108 34.0929 12.9007 34.3177 12.8903 34.5493C12.8808 34.7857 12.8714 35.0221 12.8616 35.2656C12.8512 35.503 12.8408 35.7403 12.8301 35.9849C12.8045 36.5732 12.7799 37.1616 12.7563 37.75C12.6769 37.75 12.5975 37.75 12.5156 37.75C12.5156 35.8525 12.5156 33.955 12.5156 32Z" fill="#536D78"/>
<path d="M19.4954 28C19.5748 28 19.6542 28 19.7361 28C19.7654 30.0995 19.6984 32.1606 19.4954 34.25C19.416 34.25 19.3365 34.25 19.2547 34.25C19.2009 33.5366 19.1514 32.8233 19.1043 32.1094C19.0888 31.9094 19.0733 31.7094 19.0573 31.5034C18.9759 30.2089 19.0805 29.2255 19.4954 28Z" fill="#8B9398"/>
<path d="M16.1257 27.75C17.2241 27.8701 17.2241 27.8701 17.645 28.3906C17.9169 29.3917 18.0268 30.5506 17.5698 31.5C17.411 31.5 17.2521 31.5 17.0885 31.5C17.0795 31.2712 17.0705 31.0424 17.0612 30.8066C17.0454 30.5095 17.0296 30.2124 17.0133 29.9062C16.9993 29.6104 16.9853 29.3146 16.9709 29.0098C16.9303 28.759 16.8897 28.5083 16.8478 28.25C16.6095 28.085 16.3712 27.92 16.1257 27.75Z" fill="#969A9C"/>
<path d="M15.4038 39C16.5952 39 17.7865 39 19.014 39C18.7733 39.5 18.7733 39.5 18.3634 39.6553C17.7091 39.7674 17.0896 39.7738 16.4267 39.7656C16.1896 39.7634 15.9526 39.7611 15.7084 39.7588C15.5284 39.7559 15.3485 39.753 15.1631 39.75C15.2425 39.5025 15.3219 39.255 15.4038 39Z" fill="#9BAAB2"/>
<path d="M21.1801 15.25C21.9744 15.25 22.7687 15.25 23.587 15.25C23.587 15.3325 23.587 15.415 23.587 15.5C22.9516 15.5 22.3162 15.5 21.6615 15.5C21.6913 15.7166 21.7211 15.9331 21.7518 16.1562C21.6395 17.2058 21.3124 17.5159 20.6038 18.2246C20.2174 18.5 20.2174 18.5 19.4954 18.5C19.4954 18.335 19.4954 18.17 19.4954 18C19.7287 17.8608 19.962 17.7216 20.2024 17.5781C21.0278 17.059 21.0278 17.059 21.1501 16.0625C21.16 15.7944 21.1699 15.5263 21.1801 15.25Z" fill="#ABB9C7"/>
<path d="M25.7532 9C27.1828 9 28.6125 9 30.0855 9C30.0855 9.165 30.0855 9.33 30.0855 9.5C29.2912 9.5 28.497 9.5 27.6786 9.5C27.6786 9.665 27.6786 9.83 27.6786 10C27.1227 9.9175 26.5667 9.835 25.9939 9.75C25.9144 9.5025 25.835 9.255 25.7532 9Z" fill="#656569"/>
<path d="M14.6816 23.75C14.8404 23.75 14.9993 23.75 15.1629 23.75C15.0835 24.3275 15.0041 24.905 14.9223 25.5C14.7634 25.5 14.6046 25.5 14.4409 25.5C14.4409 25.7475 14.4409 25.995 14.4409 26.25C14.0438 26.25 13.6466 26.25 13.2375 26.25C13.0786 25.92 12.9198 25.59 12.7561 25.25C13.3915 25.1675 14.0269 25.085 14.6816 25C14.6816 24.5875 14.6816 24.175 14.6816 23.75Z" fill="#B9C0C4"/>
<path d="M20.2175 22C20.6687 22.0312 20.6687 22.0312 21.1802 22.25C21.481 23.0156 21.481 23.0156 21.6615 23.75C21.185 23.75 20.7084 23.75 20.2175 23.75C20.0586 23.42 19.8997 23.09 19.7361 22.75C19.8949 22.75 20.0538 22.75 20.2175 22.75C20.2175 22.5025 20.2175 22.255 20.2175 22Z" fill="#4F5E6F"/>
<path d="M19.4953 17.25C19.1611 17.9443 18.7809 18.0085 18.0963 18.2969C17.8862 18.3881 17.6762 18.4793 17.4598 18.5732C16.8121 18.7603 16.5071 18.7365 15.885 18.5C16.8934 17.5399 18.1547 17.25 19.4953 17.25Z" fill="#5E6F85"/>
<path d="M23.3463 10.25C23.5846 10.25 23.8228 10.25 24.0683 10.25C24.0786 10.7499 24.0781 11.2501 24.0683 11.75C23.8276 12 23.8276 12 23.0906 12.0156C22.7406 12.0079 22.7406 12.0079 22.3835 12C22.463 11.67 22.5424 11.34 22.6242 11C22.8625 11 23.1008 11 23.3463 11C23.3463 10.7525 23.3463 10.505 23.3463 10.25Z" fill="#848C95"/>
<path d="M29.1226 19C29.758 19 30.3934 19 31.048 19C31.048 19.33 31.048 19.66 31.048 20C30.4126 20 29.7772 20 29.1226 20C29.1226 19.67 29.1226 19.34 29.1226 19Z" fill="#A4B6C7"/>
<path d="M25.7532 11.75C26.1503 11.915 26.5475 12.08 26.9566 12.25C26.4752 12.75 26.4752 12.75 25.9566 12.8068C25.7474 12.8041 25.5382 12.8015 25.3226 12.7988C25.0961 12.7972 24.8696 12.7956 24.6363 12.7939C24.3992 12.7898 24.1622 12.7856 23.918 12.7812C23.6791 12.779 23.4402 12.7767 23.1941 12.7744C22.6029 12.7685 22.012 12.7603 21.4209 12.75C21.4209 12.5025 21.4209 12.255 21.4209 12C21.8598 12.0044 21.8598 12.0044 22.3075 12.0088C22.6889 12.0111 23.0703 12.0134 23.4517 12.0156C23.6448 12.0177 23.8379 12.0198 24.0369 12.022C24.5288 12.0241 25.0208 12.0131 25.5125 12C25.5919 11.9175 25.6714 11.835 25.7532 11.75Z" fill="#778494"/>
<path d="M17.8105 28C18.2077 28 18.6048 28 19.014 28C19.0934 28.4125 19.1728 28.825 19.2546 29.25C18.7781 29.4975 18.7781 29.4975 18.2919 29.75C17.9404 29.0882 17.8105 28.7764 17.8105 28Z" fill="#B2B9BC"/>
<path d="M27.6785 22C28.7904 22 29.9024 22 31.048 22C31.048 22.2475 31.048 22.495 31.048 22.75C28.7832 22.8423 28.7832 22.8423 27.6785 22.25C27.6785 22.1675 27.6785 22.085 27.6785 22Z" fill="#4F4D4A"/>
<path d="M24.309 15.75C24.4679 15.75 24.6267 15.75 24.7904 15.75C24.7904 16.1625 24.7904 16.575 24.7904 17C24.9493 17 25.1081 17 25.2718 17C25.3606 18.3846 25.3606 18.3846 24.9108 18.9688C24.732 19.108 24.732 19.108 24.5497 19.25C24.3909 19.1675 24.232 19.085 24.0684 19C24.1478 18.9175 24.2272 18.835 24.309 18.75C24.3265 18.2451 24.3292 17.7396 24.3241 17.2344C24.3219 16.9582 24.3197 16.682 24.3175 16.3975C24.3147 16.1838 24.3119 15.9701 24.309 15.75Z" fill="#9DAEBF"/>
<path d="M24.0683 10.25C24.1477 10.4975 24.2272 10.745 24.309 11C24.9354 11.4121 25.2386 11.5 25.9938 11.5C25.7555 11.8713 25.7555 11.8713 25.5124 12.25C24.6399 12.2969 24.6399 12.2969 23.8276 12.25C23.9071 11.59 23.9865 10.93 24.0683 10.25Z" fill="#5C6673"/>
<path d="M21.6614 15.5C22.2968 15.5 22.9322 15.5 23.5869 15.5C23.3784 15.5773 23.3784 15.5773 23.1657 15.6562C22.4269 16.1252 22.1204 16.7465 21.6614 17.5C21.2402 17.9688 21.2402 17.9688 20.9394 18.25C20.7805 18.1675 20.6217 18.085 20.458 18C20.6119 17.8659 20.7658 17.7319 20.9243 17.5938C21.5135 16.8891 21.5813 16.4153 21.6614 15.5Z" fill="#DCE5EB"/>
<path d="M27.9193 14.75C27.681 14.8738 27.681 14.8738 27.4379 15C27.4379 15.5775 27.4379 16.155 27.4379 16.75C27.3585 16.75 27.2791 16.75 27.1972 16.75C27.1972 16.1725 27.1972 15.595 27.1972 15C26.1647 15 25.1322 15 24.0684 15C24.0684 14.9175 24.0684 14.835 24.0684 14.75C25.5047 14.1787 26.4564 14.3021 27.9193 14.75Z" fill="#494644"/>
<path d="M13.4782 21C13.6371 21.0825 13.7959 21.165 13.9596 21.25C13.8802 21.58 13.8007 21.91 13.7189 22.25C14.0366 22.1675 14.3543 22.085 14.6816 22C14.7611 22.4125 14.8405 22.825 14.9223 23.25C14.3664 23.25 13.8104 23.25 13.2375 23.25C13.317 22.5075 13.3964 21.765 13.4782 21Z" fill="#BDC5CA"/>
<path d="M16.6071 25C16.6865 25.4125 16.766 25.825 16.8478 26.25C15.7755 26.3737 15.7755 26.3737 14.6816 26.5C14.8405 26.4175 14.9993 26.335 15.163 26.25C15.163 26.0025 15.163 25.755 15.163 25.5C15.8851 25 15.8851 25 16.6071 25Z" fill="#686A6F"/>
<path d="M22.3836 9.50001C21.04 10.3315 20.0979 10.6161 18.5327 10.5C19.157 10.1488 19.8011 9.85575 20.4582 9.57814C20.617 9.51014 20.7759 9.44214 20.9395 9.37208C21.5041 9.22893 21.8383 9.31163 22.3836 9.50001Z" fill="#6D7378"/>
<path d="M17.3291 9.5C18.1234 9.5825 18.9176 9.665 19.7359 9.75C19.7359 10.0833 19.7359 10.4167 19.7359 10.75C18.1756 10.8417 18.1756 10.8417 17.5848 10.4062C17.3291 10 17.3291 10 17.3291 9.5Z" fill="#444444"/>
<path d="M15.1631 23C15.4014 23 15.6396 23 15.8851 23C15.8851 23.165 15.8851 23.33 15.8851 23.5C16.1234 23.5 16.3617 23.5 16.6072 23.5C16.6866 23.335 16.766 23.17 16.8479 23C17.4436 23.2475 17.4436 23.2475 18.0513 23.5C17.813 23.8713 17.813 23.8713 17.5699 24.25C16.7757 24.0025 15.9814 23.755 15.1631 23.5C15.1631 23.335 15.1631 23.17 15.1631 23Z" fill="#494D52"/>
<path d="M14.9223 20C14.684 20.0825 14.4457 20.165 14.2002 20.25C14.1208 20.4975 14.0414 20.745 13.9596 21C13.8007 21 13.6419 21 13.4782 21C13.4881 21.2784 13.498 21.5569 13.5083 21.8437C13.4782 22.75 13.4782 22.75 12.9968 23.25C13.0136 22.3179 13.056 21.4144 13.2375 20.5C14.1677 19.6081 14.1677 19.6081 14.9223 20Z" fill="#899AAD"/>
<path d="M19.9767 34.5C20.0561 34.5 20.1355 34.5 20.2174 34.5C20.19 35.2398 20.1595 35.9792 20.1271 36.7188C20.1197 36.9292 20.1122 37.1396 20.1045 37.3564C20.0952 37.5579 20.0859 37.7593 20.0763 37.9668C20.065 38.2457 20.065 38.2457 20.0534 38.5302C19.9767 39 19.9767 39 19.4953 39.5C19.2245 38.3125 19.2245 38.3125 19.4953 37.75C19.5887 37.1993 19.6727 36.6469 19.751 36.0938C19.8148 35.6481 19.8148 35.6481 19.8798 35.1934C19.9118 34.9646 19.9438 34.7357 19.9767 34.5Z" fill="#878987"/>
<path d="M13.9597 20.75C14.1185 20.8325 14.2774 20.915 14.441 21C14.3616 21.165 14.2822 21.33 14.2004 21.5C14.4386 21.5 14.6769 21.5 14.9224 21.5C14.9224 21.2525 14.9224 21.005 14.9224 20.75C15.2401 20.8325 15.5578 20.915 15.8851 21C15.203 21.8136 14.7573 22.1302 13.719 22.25C13.7984 21.755 13.8778 21.26 13.9597 20.75Z" fill="#DBE1E5"/>
<path d="M15.4038 18.5C15.8071 18.5715 16.2086 18.6545 16.6072 18.75C15.9403 19.7025 15.0118 19.7671 13.9597 20C14.4411 19.5 14.9224 19 15.4038 18.5Z" fill="#6D7E95"/>
<path d="M18.0512 7.5C18.4484 7.5825 18.8455 7.665 19.2546 7.75C19.1752 8.08 19.0958 8.41 19.014 8.75C18.6168 8.75 18.2197 8.75 17.8105 8.75C17.89 8.3375 17.9694 7.925 18.0512 7.5Z" fill="#E7EDF0"/>
<path d="M18.292 37.75C18.292 37.915 18.292 38.08 18.292 38.25C17.4173 38.8315 16.6624 38.7907 15.6445 38.75C15.6445 38.585 15.6445 38.42 15.6445 38.25C17.4797 37.75 17.4797 37.75 18.292 37.75Z" fill="#76AEE0"/>
<path d="M11.0715 23.75C11.6632 24.6718 11.7966 25.4242 12.0343 26.5C11.7166 26.5 11.3989 26.5 11.0715 26.5C11.0715 25.5925 11.0715 24.685 11.0715 23.75Z" fill="#606365"/>
<path d="M27.9192 20.75C28.3163 20.75 28.7135 20.75 29.1226 20.75C29.1226 20.9975 29.1226 21.245 29.1226 21.5C28.5666 21.5825 28.0107 21.665 27.4378 21.75C27.5967 21.42 27.7555 21.09 27.9192 20.75ZM26.4751 21.75C27.4378 22 27.4378 22 27.4378 22L26.4751 21.75Z" fill="#3B3637"/>
<path d="M24.0682 7.99997C24.0682 8.24747 24.0682 8.49497 24.0682 8.74997C23.3534 8.74997 22.6386 8.74997 21.9021 8.74997C21.9021 8.58497 21.9021 8.41997 21.9021 8.24997C22.6418 8.02232 23.2983 7.97776 24.0682 7.99997Z" fill="#D9E1E5"/>
<path d="M27.9643 7.70312C28.2994 7.72633 28.2994 7.72633 28.6412 7.75C28.6412 7.9975 28.6412 8.245 28.6412 8.5C27.9264 8.5 27.2116 8.5 26.4751 8.5C27.1971 7.75 27.1971 7.75 27.9643 7.70312Z" fill="#E5EDF1"/>
<path d="M12.7561 23.75C13.2327 23.75 13.7092 23.75 14.2002 23.75C14.2796 23.915 14.3591 24.08 14.4409 24.25C14.3615 24.415 14.282 24.58 14.2002 24.75C13.4854 24.6263 13.4854 24.6263 12.7561 24.5C12.7561 24.2525 12.7561 24.005 12.7561 23.75Z" fill="#E9EEF1"/>
<path d="M23.8276 7.75C24.463 7.915 25.0984 8.08 25.7531 8.25C25.7531 8.415 25.7531 8.58 25.7531 8.75C25.1971 8.75 24.6411 8.75 24.0683 8.75C23.9889 8.42 23.9095 8.09 23.8276 7.75Z" fill="#7E8DA0"/>
<path d="M8.42383 27.75C9.13866 27.75 9.85349 27.75 10.59 27.75C10.6694 27.9975 10.7488 28.245 10.8307 28.5C9.90248 28.5551 9.26809 28.4009 8.42383 28C8.42383 27.9175 8.42383 27.835 8.42383 27.75Z" fill="#BBCBD6"/>
<path d="M16.1257 20.25C16.0462 20.415 15.9668 20.58 15.885 20.75C15.5673 20.75 15.2496 20.75 14.9222 20.75C14.9222 20.9975 14.9222 21.245 14.9222 21.5C14.684 21.5 14.4457 21.5 14.2002 21.5C14.2453 21.0313 14.2453 21.0313 14.4409 20.5C15.4838 19.9167 15.4838 19.9167 16.1257 20.25Z" fill="#EDF3F7"/>
<path d="M30.3261 9.75002C30.2466 9.91502 30.1672 10.08 30.0854 10.25C29.5294 10.25 28.9734 10.25 28.4006 10.25C28.3212 10.085 28.2417 9.92002 28.1599 9.75002C28.9603 9.47291 29.513 9.53889 30.3261 9.75002Z" fill="#454141"/>
<path d="M18.2919 22.5C18.2919 22.5825 18.2919 22.665 18.2919 22.75C17.7359 22.8325 17.1799 22.915 16.6071 23C16.6071 23.165 16.6071 23.33 16.6071 23.5C16.4482 23.5 16.2894 23.5 16.1257 23.5C16.1257 23.17 16.1257 22.84 16.1257 22.5C16.8644 22.1164 17.4979 22.3625 18.2919 22.5Z" fill="#333231"/>
<path d="M21.4208 9.25003C20.7943 9.68388 20.4612 9.90283 19.736 10C19.5772 9.83503 19.4183 9.67003 19.2546 9.50003C20.0611 8.97258 20.5113 8.9876 21.4208 9.25003Z" fill="#5A5456"/>
<path d="M25.7532 8C25.9393 8.05414 25.9393 8.05414 26.1292 8.10937C26.8808 8.28952 27.6366 8.39317 28.4007 8.5C28.4007 8.5825 28.4007 8.665 28.4007 8.75C27.527 8.75 26.6533 8.75 25.7532 8.75C25.7532 8.5025 25.7532 8.255 25.7532 8Z" fill="#C7D1D9"/>
<path d="M28.4006 7C28.8772 7 29.3537 7 29.8447 7C30.1005 7.46875 30.1005 7.46875 30.3261 8C30.2467 8.165 30.1672 8.33 30.0854 8.5C29.9266 8.4175 29.7677 8.335 29.6041 8.25C29.6041 8.085 29.6041 7.92 29.6041 7.75C29.0084 7.5025 29.0084 7.5025 28.4006 7.25C28.4006 7.1675 28.4006 7.085 28.4006 7Z" fill="#6C7B8F"/>
<path d="M22.865 9.25C23.2621 9.25 23.6592 9.25 24.0684 9.25C24.0684 9.58 24.0684 9.91 24.0684 10.25C23.6021 10.1719 23.6021 10.1719 23.1057 10C23.0262 9.7525 22.9468 9.505 22.865 9.25Z" fill="#73777A"/>
</g>
<defs>
<clipPath id="clip0_29_10286">
<rect width="155" height="51" fill="white"/>
</clipPath>
</defs>
</svg>
